G04 #@! TF.GenerationSoftware,KiCad,Pcbnew,(5.0.1-dev-70-gb7b125d83)*
G04 #@! TF.CreationDate,2018-10-10T22:00:42+02:00*
G04 #@! TF.ProjectId,relay-board,72656C61792D626F6172642E6B696361,rev?*
G04 #@! TF.SameCoordinates,Original*
G04 #@! TF.FileFunction,Paste,Top*
G04 #@! TF.FilePolarity,Positive*
%FSLAX46Y46*%
G04 Gerber Fmt 4.6, Leading zero omitted, Abs format (unit mm)*
G04 Created by KiCad (PCBNEW (5.0.1-dev-70-gb7b125d83)) date 10/10/18 22:00:42*
%MOMM*%
%LPD*%
G01*
G04 APERTURE LIST*
%ADD10C,1.676868*%
%ADD11C,0.100000*%
%ADD12R,1.900000X0.800000*%
%ADD13C,1.150000*%
G04 APERTURE END LIST*
D10*
G04 #@! TO.C,D1*
X104400000Y-103000000D03*
D11*
G36*
X106200000Y-101850000D02*
X106200000Y-104150000D01*
X102600000Y-103550000D01*
X102600000Y-102450000D01*
X106200000Y-101850000D01*
X106200000Y-101850000D01*
G37*
D10*
X98600000Y-103000000D03*
D11*
G36*
X96800000Y-104150000D02*
X96800000Y-101850000D01*
X100400000Y-102450000D01*
X100400000Y-103550000D01*
X96800000Y-104150000D01*
X96800000Y-104150000D01*
G37*
G04 #@! TD*
D12*
G04 #@! TO.C,Q1*
X101250000Y-85700000D03*
X101250000Y-83800000D03*
X98250000Y-84750000D03*
G04 #@! TD*
D11*
G04 #@! TO.C,R1*
G36*
X105974505Y-83151204D02*
X105998773Y-83154804D01*
X106022572Y-83160765D01*
X106045671Y-83169030D01*
X106067850Y-83179520D01*
X106088893Y-83192132D01*
X106108599Y-83206747D01*
X106126777Y-83223223D01*
X106143253Y-83241401D01*
X106157868Y-83261107D01*
X106170480Y-83282150D01*
X106180970Y-83304329D01*
X106189235Y-83327428D01*
X106195196Y-83351227D01*
X106198796Y-83375495D01*
X106200000Y-83399999D01*
X106200000Y-84050001D01*
X106198796Y-84074505D01*
X106195196Y-84098773D01*
X106189235Y-84122572D01*
X106180970Y-84145671D01*
X106170480Y-84167850D01*
X106157868Y-84188893D01*
X106143253Y-84208599D01*
X106126777Y-84226777D01*
X106108599Y-84243253D01*
X106088893Y-84257868D01*
X106067850Y-84270480D01*
X106045671Y-84280970D01*
X106022572Y-84289235D01*
X105998773Y-84295196D01*
X105974505Y-84298796D01*
X105950001Y-84300000D01*
X105049999Y-84300000D01*
X105025495Y-84298796D01*
X105001227Y-84295196D01*
X104977428Y-84289235D01*
X104954329Y-84280970D01*
X104932150Y-84270480D01*
X104911107Y-84257868D01*
X104891401Y-84243253D01*
X104873223Y-84226777D01*
X104856747Y-84208599D01*
X104842132Y-84188893D01*
X104829520Y-84167850D01*
X104819030Y-84145671D01*
X104810765Y-84122572D01*
X104804804Y-84098773D01*
X104801204Y-84074505D01*
X104800000Y-84050001D01*
X104800000Y-83399999D01*
X104801204Y-83375495D01*
X104804804Y-83351227D01*
X104810765Y-83327428D01*
X104819030Y-83304329D01*
X104829520Y-83282150D01*
X104842132Y-83261107D01*
X104856747Y-83241401D01*
X104873223Y-83223223D01*
X104891401Y-83206747D01*
X104911107Y-83192132D01*
X104932150Y-83179520D01*
X104954329Y-83169030D01*
X104977428Y-83160765D01*
X105001227Y-83154804D01*
X105025495Y-83151204D01*
X105049999Y-83150000D01*
X105950001Y-83150000D01*
X105974505Y-83151204D01*
X105974505Y-83151204D01*
G37*
D13*
X105500000Y-83725000D03*
D11*
G36*
X105974505Y-85201204D02*
X105998773Y-85204804D01*
X106022572Y-85210765D01*
X106045671Y-85219030D01*
X106067850Y-85229520D01*
X106088893Y-85242132D01*
X106108599Y-85256747D01*
X106126777Y-85273223D01*
X106143253Y-85291401D01*
X106157868Y-85311107D01*
X106170480Y-85332150D01*
X106180970Y-85354329D01*
X106189235Y-85377428D01*
X106195196Y-85401227D01*
X106198796Y-85425495D01*
X106200000Y-85449999D01*
X106200000Y-86100001D01*
X106198796Y-86124505D01*
X106195196Y-86148773D01*
X106189235Y-86172572D01*
X106180970Y-86195671D01*
X106170480Y-86217850D01*
X106157868Y-86238893D01*
X106143253Y-86258599D01*
X106126777Y-86276777D01*
X106108599Y-86293253D01*
X106088893Y-86307868D01*
X106067850Y-86320480D01*
X106045671Y-86330970D01*
X106022572Y-86339235D01*
X105998773Y-86345196D01*
X105974505Y-86348796D01*
X105950001Y-86350000D01*
X105049999Y-86350000D01*
X105025495Y-86348796D01*
X105001227Y-86345196D01*
X104977428Y-86339235D01*
X104954329Y-86330970D01*
X104932150Y-86320480D01*
X104911107Y-86307868D01*
X104891401Y-86293253D01*
X104873223Y-86276777D01*
X104856747Y-86258599D01*
X104842132Y-86238893D01*
X104829520Y-86217850D01*
X104819030Y-86195671D01*
X104810765Y-86172572D01*
X104804804Y-86148773D01*
X104801204Y-86124505D01*
X104800000Y-86100001D01*
X104800000Y-85449999D01*
X104801204Y-85425495D01*
X104804804Y-85401227D01*
X104810765Y-85377428D01*
X104819030Y-85354329D01*
X104829520Y-85332150D01*
X104842132Y-85311107D01*
X104856747Y-85291401D01*
X104873223Y-85273223D01*
X104891401Y-85256747D01*
X104911107Y-85242132D01*
X104932150Y-85229520D01*
X104954329Y-85219030D01*
X104977428Y-85210765D01*
X105001227Y-85204804D01*
X105025495Y-85201204D01*
X105049999Y-85200000D01*
X105950001Y-85200000D01*
X105974505Y-85201204D01*
X105974505Y-85201204D01*
G37*
D13*
X105500000Y-85775000D03*
G04 #@! TD*
D11*
G04 #@! TO.C,R2*
G36*
X103974505Y-83151204D02*
X103998773Y-83154804D01*
X104022572Y-83160765D01*
X104045671Y-83169030D01*
X104067850Y-83179520D01*
X104088893Y-83192132D01*
X104108599Y-83206747D01*
X104126777Y-83223223D01*
X104143253Y-83241401D01*
X104157868Y-83261107D01*
X104170480Y-83282150D01*
X104180970Y-83304329D01*
X104189235Y-83327428D01*
X104195196Y-83351227D01*
X104198796Y-83375495D01*
X104200000Y-83399999D01*
X104200000Y-84050001D01*
X104198796Y-84074505D01*
X104195196Y-84098773D01*
X104189235Y-84122572D01*
X104180970Y-84145671D01*
X104170480Y-84167850D01*
X104157868Y-84188893D01*
X104143253Y-84208599D01*
X104126777Y-84226777D01*
X104108599Y-84243253D01*
X104088893Y-84257868D01*
X104067850Y-84270480D01*
X104045671Y-84280970D01*
X104022572Y-84289235D01*
X103998773Y-84295196D01*
X103974505Y-84298796D01*
X103950001Y-84300000D01*
X103049999Y-84300000D01*
X103025495Y-84298796D01*
X103001227Y-84295196D01*
X102977428Y-84289235D01*
X102954329Y-84280970D01*
X102932150Y-84270480D01*
X102911107Y-84257868D01*
X102891401Y-84243253D01*
X102873223Y-84226777D01*
X102856747Y-84208599D01*
X102842132Y-84188893D01*
X102829520Y-84167850D01*
X102819030Y-84145671D01*
X102810765Y-84122572D01*
X102804804Y-84098773D01*
X102801204Y-84074505D01*
X102800000Y-84050001D01*
X102800000Y-83399999D01*
X102801204Y-83375495D01*
X102804804Y-83351227D01*
X102810765Y-83327428D01*
X102819030Y-83304329D01*
X102829520Y-83282150D01*
X102842132Y-83261107D01*
X102856747Y-83241401D01*
X102873223Y-83223223D01*
X102891401Y-83206747D01*
X102911107Y-83192132D01*
X102932150Y-83179520D01*
X102954329Y-83169030D01*
X102977428Y-83160765D01*
X103001227Y-83154804D01*
X103025495Y-83151204D01*
X103049999Y-83150000D01*
X103950001Y-83150000D01*
X103974505Y-83151204D01*
X103974505Y-83151204D01*
G37*
D13*
X103500000Y-83725000D03*
D11*
G36*
X103974505Y-85201204D02*
X103998773Y-85204804D01*
X104022572Y-85210765D01*
X104045671Y-85219030D01*
X104067850Y-85229520D01*
X104088893Y-85242132D01*
X104108599Y-85256747D01*
X104126777Y-85273223D01*
X104143253Y-85291401D01*
X104157868Y-85311107D01*
X104170480Y-85332150D01*
X104180970Y-85354329D01*
X104189235Y-85377428D01*
X104195196Y-85401227D01*
X104198796Y-85425495D01*
X104200000Y-85449999D01*
X104200000Y-86100001D01*
X104198796Y-86124505D01*
X104195196Y-86148773D01*
X104189235Y-86172572D01*
X104180970Y-86195671D01*
X104170480Y-86217850D01*
X104157868Y-86238893D01*
X104143253Y-86258599D01*
X104126777Y-86276777D01*
X104108599Y-86293253D01*
X104088893Y-86307868D01*
X104067850Y-86320480D01*
X104045671Y-86330970D01*
X104022572Y-86339235D01*
X103998773Y-86345196D01*
X103974505Y-86348796D01*
X103950001Y-86350000D01*
X103049999Y-86350000D01*
X103025495Y-86348796D01*
X103001227Y-86345196D01*
X102977428Y-86339235D01*
X102954329Y-86330970D01*
X102932150Y-86320480D01*
X102911107Y-86307868D01*
X102891401Y-86293253D01*
X102873223Y-86276777D01*
X102856747Y-86258599D01*
X102842132Y-86238893D01*
X102829520Y-86217850D01*
X102819030Y-86195671D01*
X102810765Y-86172572D01*
X102804804Y-86148773D01*
X102801204Y-86124505D01*
X102800000Y-86100001D01*
X102800000Y-85449999D01*
X102801204Y-85425495D01*
X102804804Y-85401227D01*
X102810765Y-85377428D01*
X102819030Y-85354329D01*
X102829520Y-85332150D01*
X102842132Y-85311107D01*
X102856747Y-85291401D01*
X102873223Y-85273223D01*
X102891401Y-85256747D01*
X102911107Y-85242132D01*
X102932150Y-85229520D01*
X102954329Y-85219030D01*
X102977428Y-85210765D01*
X103001227Y-85204804D01*
X103025495Y-85201204D01*
X103049999Y-85200000D01*
X103950001Y-85200000D01*
X103974505Y-85201204D01*
X103974505Y-85201204D01*
G37*
D13*
X103500000Y-85775000D03*
G04 #@! TD*
M02*
