G04 #@! TF.GenerationSoftware,KiCad,Pcbnew,(5.0.1-dev-70-gb7b125d83)*
G04 #@! TF.CreationDate,2018-10-10T22:00:42+02:00*
G04 #@! TF.ProjectId,relay-board,72656C61792D626F6172642E6B696361,rev?*
G04 #@! TF.SameCoordinates,Original*
G04 #@! TF.FileFunction,Soldermask,Top*
G04 #@! TF.FilePolarity,Negative*
%FSLAX46Y46*%
G04 Gerber Fmt 4.6, Leading zero omitted, Abs format (unit mm)*
G04 Created by KiCad (PCBNEW (5.0.1-dev-70-gb7b125d83)) date 10/10/18 22:00:42*
%MOMM*%
%LPD*%
G01*
G04 APERTURE LIST*
%ADD10C,3.600000*%
%ADD11C,2.076870*%
%ADD12C,0.100000*%
%ADD13R,4.000000X2.400000*%
%ADD14O,4.000000X2.400000*%
%ADD15R,2.100000X2.100000*%
%ADD16O,2.100000X2.100000*%
%ADD17R,2.300000X1.200000*%
%ADD18C,1.550000*%
%ADD19R,3.400000X2.400000*%
%ADD20O,3.400000X2.400000*%
%ADD21O,2.400000X3.400000*%
G04 APERTURE END LIST*
D10*
G04 #@! TO.C,REF\002A\002A*
X104500000Y-111000000D03*
G04 #@! TD*
D11*
G04 #@! TO.C,D1*
X104400000Y-103000000D03*
D12*
G36*
X106400000Y-101613908D02*
X106400000Y-104386092D01*
X102400000Y-103719426D01*
X102400000Y-102280574D01*
X106400000Y-101613908D01*
X106400000Y-101613908D01*
G37*
D11*
X98600000Y-103000000D03*
D12*
G36*
X96600000Y-104386092D02*
X96600000Y-101613908D01*
X100600000Y-102280574D01*
X100600000Y-103719426D01*
X96600000Y-104386092D01*
X96600000Y-104386092D01*
G37*
G04 #@! TD*
D13*
G04 #@! TO.C,J1*
X78200000Y-77300000D03*
D14*
X78200000Y-82300000D03*
G04 #@! TD*
G04 #@! TO.C,J2*
X78200000Y-110300000D03*
D13*
X78200000Y-105300000D03*
G04 #@! TD*
D15*
G04 #@! TO.C,J3*
X97250000Y-78000000D03*
D16*
X99790000Y-78000000D03*
X102330000Y-78000000D03*
X104870000Y-78000000D03*
G04 #@! TD*
D17*
G04 #@! TO.C,Q1*
X101250000Y-85700000D03*
X101250000Y-83800000D03*
X98250000Y-84750000D03*
G04 #@! TD*
D12*
G04 #@! TO.C,R1*
G36*
X106096071Y-82951623D02*
X106128781Y-82956475D01*
X106160857Y-82964509D01*
X106191991Y-82975649D01*
X106221884Y-82989787D01*
X106250247Y-83006787D01*
X106276807Y-83026485D01*
X106301308Y-83048692D01*
X106323515Y-83073193D01*
X106343213Y-83099753D01*
X106360213Y-83128116D01*
X106374351Y-83158009D01*
X106385491Y-83189143D01*
X106393525Y-83221219D01*
X106398377Y-83253929D01*
X106400000Y-83286956D01*
X106400000Y-84163044D01*
X106398377Y-84196071D01*
X106393525Y-84228781D01*
X106385491Y-84260857D01*
X106374351Y-84291991D01*
X106360213Y-84321884D01*
X106343213Y-84350247D01*
X106323515Y-84376807D01*
X106301308Y-84401308D01*
X106276807Y-84423515D01*
X106250247Y-84443213D01*
X106221884Y-84460213D01*
X106191991Y-84474351D01*
X106160857Y-84485491D01*
X106128781Y-84493525D01*
X106096071Y-84498377D01*
X106063044Y-84500000D01*
X104936956Y-84500000D01*
X104903929Y-84498377D01*
X104871219Y-84493525D01*
X104839143Y-84485491D01*
X104808009Y-84474351D01*
X104778116Y-84460213D01*
X104749753Y-84443213D01*
X104723193Y-84423515D01*
X104698692Y-84401308D01*
X104676485Y-84376807D01*
X104656787Y-84350247D01*
X104639787Y-84321884D01*
X104625649Y-84291991D01*
X104614509Y-84260857D01*
X104606475Y-84228781D01*
X104601623Y-84196071D01*
X104600000Y-84163044D01*
X104600000Y-83286956D01*
X104601623Y-83253929D01*
X104606475Y-83221219D01*
X104614509Y-83189143D01*
X104625649Y-83158009D01*
X104639787Y-83128116D01*
X104656787Y-83099753D01*
X104676485Y-83073193D01*
X104698692Y-83048692D01*
X104723193Y-83026485D01*
X104749753Y-83006787D01*
X104778116Y-82989787D01*
X104808009Y-82975649D01*
X104839143Y-82964509D01*
X104871219Y-82956475D01*
X104903929Y-82951623D01*
X104936956Y-82950000D01*
X106063044Y-82950000D01*
X106096071Y-82951623D01*
X106096071Y-82951623D01*
G37*
D18*
X105500000Y-83725000D03*
D12*
G36*
X106096071Y-85001623D02*
X106128781Y-85006475D01*
X106160857Y-85014509D01*
X106191991Y-85025649D01*
X106221884Y-85039787D01*
X106250247Y-85056787D01*
X106276807Y-85076485D01*
X106301308Y-85098692D01*
X106323515Y-85123193D01*
X106343213Y-85149753D01*
X106360213Y-85178116D01*
X106374351Y-85208009D01*
X106385491Y-85239143D01*
X106393525Y-85271219D01*
X106398377Y-85303929D01*
X106400000Y-85336956D01*
X106400000Y-86213044D01*
X106398377Y-86246071D01*
X106393525Y-86278781D01*
X106385491Y-86310857D01*
X106374351Y-86341991D01*
X106360213Y-86371884D01*
X106343213Y-86400247D01*
X106323515Y-86426807D01*
X106301308Y-86451308D01*
X106276807Y-86473515D01*
X106250247Y-86493213D01*
X106221884Y-86510213D01*
X106191991Y-86524351D01*
X106160857Y-86535491D01*
X106128781Y-86543525D01*
X106096071Y-86548377D01*
X106063044Y-86550000D01*
X104936956Y-86550000D01*
X104903929Y-86548377D01*
X104871219Y-86543525D01*
X104839143Y-86535491D01*
X104808009Y-86524351D01*
X104778116Y-86510213D01*
X104749753Y-86493213D01*
X104723193Y-86473515D01*
X104698692Y-86451308D01*
X104676485Y-86426807D01*
X104656787Y-86400247D01*
X104639787Y-86371884D01*
X104625649Y-86341991D01*
X104614509Y-86310857D01*
X104606475Y-86278781D01*
X104601623Y-86246071D01*
X104600000Y-86213044D01*
X104600000Y-85336956D01*
X104601623Y-85303929D01*
X104606475Y-85271219D01*
X104614509Y-85239143D01*
X104625649Y-85208009D01*
X104639787Y-85178116D01*
X104656787Y-85149753D01*
X104676485Y-85123193D01*
X104698692Y-85098692D01*
X104723193Y-85076485D01*
X104749753Y-85056787D01*
X104778116Y-85039787D01*
X104808009Y-85025649D01*
X104839143Y-85014509D01*
X104871219Y-85006475D01*
X104903929Y-85001623D01*
X104936956Y-85000000D01*
X106063044Y-85000000D01*
X106096071Y-85001623D01*
X106096071Y-85001623D01*
G37*
D18*
X105500000Y-85775000D03*
G04 #@! TD*
D12*
G04 #@! TO.C,R2*
G36*
X104096071Y-82951623D02*
X104128781Y-82956475D01*
X104160857Y-82964509D01*
X104191991Y-82975649D01*
X104221884Y-82989787D01*
X104250247Y-83006787D01*
X104276807Y-83026485D01*
X104301308Y-83048692D01*
X104323515Y-83073193D01*
X104343213Y-83099753D01*
X104360213Y-83128116D01*
X104374351Y-83158009D01*
X104385491Y-83189143D01*
X104393525Y-83221219D01*
X104398377Y-83253929D01*
X104400000Y-83286956D01*
X104400000Y-84163044D01*
X104398377Y-84196071D01*
X104393525Y-84228781D01*
X104385491Y-84260857D01*
X104374351Y-84291991D01*
X104360213Y-84321884D01*
X104343213Y-84350247D01*
X104323515Y-84376807D01*
X104301308Y-84401308D01*
X104276807Y-84423515D01*
X104250247Y-84443213D01*
X104221884Y-84460213D01*
X104191991Y-84474351D01*
X104160857Y-84485491D01*
X104128781Y-84493525D01*
X104096071Y-84498377D01*
X104063044Y-84500000D01*
X102936956Y-84500000D01*
X102903929Y-84498377D01*
X102871219Y-84493525D01*
X102839143Y-84485491D01*
X102808009Y-84474351D01*
X102778116Y-84460213D01*
X102749753Y-84443213D01*
X102723193Y-84423515D01*
X102698692Y-84401308D01*
X102676485Y-84376807D01*
X102656787Y-84350247D01*
X102639787Y-84321884D01*
X102625649Y-84291991D01*
X102614509Y-84260857D01*
X102606475Y-84228781D01*
X102601623Y-84196071D01*
X102600000Y-84163044D01*
X102600000Y-83286956D01*
X102601623Y-83253929D01*
X102606475Y-83221219D01*
X102614509Y-83189143D01*
X102625649Y-83158009D01*
X102639787Y-83128116D01*
X102656787Y-83099753D01*
X102676485Y-83073193D01*
X102698692Y-83048692D01*
X102723193Y-83026485D01*
X102749753Y-83006787D01*
X102778116Y-82989787D01*
X102808009Y-82975649D01*
X102839143Y-82964509D01*
X102871219Y-82956475D01*
X102903929Y-82951623D01*
X102936956Y-82950000D01*
X104063044Y-82950000D01*
X104096071Y-82951623D01*
X104096071Y-82951623D01*
G37*
D18*
X103500000Y-83725000D03*
D12*
G36*
X104096071Y-85001623D02*
X104128781Y-85006475D01*
X104160857Y-85014509D01*
X104191991Y-85025649D01*
X104221884Y-85039787D01*
X104250247Y-85056787D01*
X104276807Y-85076485D01*
X104301308Y-85098692D01*
X104323515Y-85123193D01*
X104343213Y-85149753D01*
X104360213Y-85178116D01*
X104374351Y-85208009D01*
X104385491Y-85239143D01*
X104393525Y-85271219D01*
X104398377Y-85303929D01*
X104400000Y-85336956D01*
X104400000Y-86213044D01*
X104398377Y-86246071D01*
X104393525Y-86278781D01*
X104385491Y-86310857D01*
X104374351Y-86341991D01*
X104360213Y-86371884D01*
X104343213Y-86400247D01*
X104323515Y-86426807D01*
X104301308Y-86451308D01*
X104276807Y-86473515D01*
X104250247Y-86493213D01*
X104221884Y-86510213D01*
X104191991Y-86524351D01*
X104160857Y-86535491D01*
X104128781Y-86543525D01*
X104096071Y-86548377D01*
X104063044Y-86550000D01*
X102936956Y-86550000D01*
X102903929Y-86548377D01*
X102871219Y-86543525D01*
X102839143Y-86535491D01*
X102808009Y-86524351D01*
X102778116Y-86510213D01*
X102749753Y-86493213D01*
X102723193Y-86473515D01*
X102698692Y-86451308D01*
X102676485Y-86426807D01*
X102656787Y-86400247D01*
X102639787Y-86371884D01*
X102625649Y-86341991D01*
X102614509Y-86310857D01*
X102606475Y-86278781D01*
X102601623Y-86246071D01*
X102600000Y-86213044D01*
X102600000Y-85336956D01*
X102601623Y-85303929D01*
X102606475Y-85271219D01*
X102614509Y-85239143D01*
X102625649Y-85208009D01*
X102639787Y-85178116D01*
X102656787Y-85149753D01*
X102676485Y-85123193D01*
X102698692Y-85098692D01*
X102723193Y-85076485D01*
X102749753Y-85056787D01*
X102778116Y-85039787D01*
X102808009Y-85025649D01*
X102839143Y-85014509D01*
X102871219Y-85006475D01*
X102903929Y-85001623D01*
X102936956Y-85000000D01*
X104063044Y-85000000D01*
X104096071Y-85001623D01*
X104096071Y-85001623D01*
G37*
D18*
X103500000Y-85775000D03*
G04 #@! TD*
D19*
G04 #@! TO.C,K1*
X103800000Y-90000000D03*
D20*
X103800000Y-97500000D03*
D21*
X83500000Y-90000000D03*
X78460000Y-97500000D03*
X83500000Y-97500000D03*
X78460000Y-90000000D03*
G04 #@! TD*
M02*
