G04 #@! TF.GenerationSoftware,KiCad,Pcbnew,(5.0.1-dev-70-gb7b125d83)*
G04 #@! TF.CreationDate,2018-10-10T22:00:42+02:00*
G04 #@! TF.ProjectId,relay-board,72656C61792D626F6172642E6B696361,rev?*
G04 #@! TF.SameCoordinates,Original*
G04 #@! TF.FileFunction,Legend,Bot*
G04 #@! TF.FilePolarity,Positive*
%FSLAX46Y46*%
G04 Gerber Fmt 4.6, Leading zero omitted, Abs format (unit mm)*
G04 Created by KiCad (PCBNEW (5.0.1-dev-70-gb7b125d83)) date 10/10/18 22:00:42*
%MOMM*%
%LPD*%
G01*
G04 APERTURE LIST*
%ADD10C,0.010000*%
G04 APERTURE END LIST*
D10*
G04 #@! TO.C,G\002A\002A\002A*
G36*
X90588247Y-106724964D02*
X90421848Y-106863141D01*
X90371333Y-107057766D01*
X90435127Y-107275016D01*
X90591507Y-107410966D01*
X90787968Y-107448990D01*
X90972006Y-107372462D01*
X91050378Y-107272801D01*
X91104670Y-107030669D01*
X91018715Y-106827172D01*
X90830258Y-106716408D01*
X90588247Y-106724964D01*
X90588247Y-106724964D01*
G37*
X90588247Y-106724964D02*
X90421848Y-106863141D01*
X90371333Y-107057766D01*
X90435127Y-107275016D01*
X90591507Y-107410966D01*
X90787968Y-107448990D01*
X90972006Y-107372462D01*
X91050378Y-107272801D01*
X91104670Y-107030669D01*
X91018715Y-106827172D01*
X90830258Y-106716408D01*
X90588247Y-106724964D01*
G36*
X91740410Y-106706400D02*
X91582632Y-106831729D01*
X91503253Y-107023071D01*
X91541960Y-107247639D01*
X91550935Y-107265290D01*
X91710578Y-107408555D01*
X91928412Y-107439922D01*
X92127054Y-107348953D01*
X92132400Y-107343733D01*
X92223193Y-107150312D01*
X92209675Y-106920837D01*
X92132400Y-106784933D01*
X91936895Y-106679872D01*
X91740410Y-106706400D01*
X91740410Y-106706400D01*
G37*
X91740410Y-106706400D02*
X91582632Y-106831729D01*
X91503253Y-107023071D01*
X91541960Y-107247639D01*
X91550935Y-107265290D01*
X91710578Y-107408555D01*
X91928412Y-107439922D01*
X92127054Y-107348953D01*
X92132400Y-107343733D01*
X92223193Y-107150312D01*
X92209675Y-106920837D01*
X92132400Y-106784933D01*
X91936895Y-106679872D01*
X91740410Y-106706400D01*
G36*
X84491936Y-104115814D02*
X83688035Y-104280232D01*
X82947783Y-104541385D01*
X82292369Y-104888736D01*
X81742987Y-105311750D01*
X81320827Y-105799890D01*
X81120901Y-106155474D01*
X80987941Y-106587006D01*
X80912455Y-107127883D01*
X80892902Y-107728732D01*
X80927738Y-108340181D01*
X81015421Y-108912859D01*
X81154408Y-109397394D01*
X81227334Y-109562001D01*
X81430872Y-109854059D01*
X81783414Y-110224774D01*
X82284339Y-110673522D01*
X82599183Y-110934205D01*
X82877883Y-111214462D01*
X83127753Y-111562060D01*
X83318512Y-111925177D01*
X83419879Y-112251994D01*
X83428667Y-112353784D01*
X83379270Y-112592661D01*
X83293031Y-112765969D01*
X83206102Y-112917575D01*
X83193655Y-112995877D01*
X83290472Y-113030528D01*
X83501020Y-113081127D01*
X83684165Y-113118284D01*
X83980717Y-113190943D01*
X84234940Y-113281057D01*
X84330896Y-113330548D01*
X84543446Y-113442492D01*
X84649735Y-113426053D01*
X84656164Y-113279264D01*
X84645943Y-113233744D01*
X84589993Y-113010822D01*
X85067663Y-113070503D01*
X85368046Y-113087650D01*
X85520884Y-113052084D01*
X85535563Y-112974708D01*
X85421466Y-112866425D01*
X85187979Y-112738139D01*
X84844487Y-112600754D01*
X84593604Y-112519718D01*
X84252843Y-112400689D01*
X84047214Y-112265493D01*
X83950692Y-112073393D01*
X83937254Y-111783652D01*
X83960228Y-111528255D01*
X84048844Y-111200297D01*
X84212849Y-110950581D01*
X84421861Y-110794577D01*
X84645497Y-110747755D01*
X84853373Y-110825583D01*
X84995028Y-111001386D01*
X85103180Y-111268089D01*
X85186364Y-111578171D01*
X85235413Y-111878730D01*
X85241160Y-112116861D01*
X85207546Y-112227940D01*
X85164125Y-112351425D01*
X85280280Y-112422495D01*
X85491914Y-112440666D01*
X85773677Y-112517195D01*
X86028136Y-112711275D01*
X86307333Y-112981884D01*
X86307333Y-112713371D01*
X86318172Y-112532534D01*
X86381627Y-112485007D01*
X86540012Y-112533321D01*
X86767995Y-112647156D01*
X86921012Y-112756015D01*
X87027641Y-112836742D01*
X87065159Y-112786862D01*
X87069333Y-112661607D01*
X86989665Y-112394035D01*
X86770608Y-112156988D01*
X86442086Y-111978261D01*
X86278878Y-111927328D01*
X86080612Y-111869576D01*
X85949628Y-111792992D01*
X85866154Y-111662427D01*
X85810418Y-111442732D01*
X85762649Y-111098757D01*
X85749220Y-110985696D01*
X85723880Y-110711293D01*
X85736040Y-110559734D01*
X85794388Y-110486997D01*
X85852242Y-110463752D01*
X85981485Y-110434590D01*
X86249485Y-110381049D01*
X86628292Y-110308469D01*
X87089958Y-110222191D01*
X87606535Y-110127557D01*
X87704333Y-110109841D01*
X88602119Y-109937520D01*
X89349385Y-109771210D01*
X89964570Y-109605698D01*
X90466117Y-109435775D01*
X90872466Y-109256229D01*
X91031070Y-109169804D01*
X91299724Y-108971977D01*
X91554649Y-108715182D01*
X91759796Y-108443734D01*
X91879118Y-108201950D01*
X91895333Y-108107306D01*
X91910666Y-108000697D01*
X91983958Y-107931439D01*
X92156149Y-107874246D01*
X92342460Y-107831132D01*
X92593937Y-107696614D01*
X92777384Y-107444986D01*
X92881809Y-107118575D01*
X92890266Y-106908031D01*
X92759768Y-106908031D01*
X92696484Y-107228995D01*
X92517927Y-107519541D01*
X92442437Y-107593500D01*
X92223879Y-107745863D01*
X92020377Y-107770845D01*
X91772317Y-107685743D01*
X91614573Y-107598501D01*
X91553974Y-107537576D01*
X91506298Y-107437723D01*
X91437385Y-107337555D01*
X91360019Y-107258272D01*
X91276633Y-107263468D01*
X91145155Y-107368270D01*
X91025211Y-107485722D01*
X90826626Y-107659735D01*
X90656647Y-107767214D01*
X90596979Y-107784000D01*
X90267795Y-107707651D01*
X90006161Y-107502836D01*
X89840756Y-107205900D01*
X89800264Y-106853190D01*
X89808696Y-106785087D01*
X89930769Y-106437560D01*
X90144757Y-106203685D01*
X90417270Y-106095133D01*
X90714920Y-106123576D01*
X91004318Y-106300689D01*
X91053552Y-106349896D01*
X91295709Y-106609125D01*
X91539938Y-106335785D01*
X91773828Y-106133294D01*
X92014470Y-106063349D01*
X92050325Y-106062444D01*
X92353058Y-106133855D01*
X92578548Y-106323338D01*
X92717287Y-106593771D01*
X92759768Y-106908031D01*
X92890266Y-106908031D01*
X92896224Y-106759709D01*
X92809638Y-106410713D01*
X92744310Y-106283438D01*
X92529181Y-106046627D01*
X92237468Y-105938087D01*
X91843660Y-105948727D01*
X91816555Y-105952904D01*
X91559855Y-105966711D01*
X91405841Y-105898136D01*
X91382219Y-105872837D01*
X91195872Y-105694757D01*
X90963431Y-105574511D01*
X90652546Y-105503811D01*
X90230865Y-105474371D01*
X89826406Y-105474312D01*
X88900478Y-105490660D01*
X88344739Y-105081668D01*
X87664255Y-104634710D01*
X87009436Y-104326224D01*
X86335158Y-104140855D01*
X85596295Y-104063249D01*
X85338292Y-104058666D01*
X84491936Y-104115814D01*
X84491936Y-104115814D01*
G37*
X84491936Y-104115814D02*
X83688035Y-104280232D01*
X82947783Y-104541385D01*
X82292369Y-104888736D01*
X81742987Y-105311750D01*
X81320827Y-105799890D01*
X81120901Y-106155474D01*
X80987941Y-106587006D01*
X80912455Y-107127883D01*
X80892902Y-107728732D01*
X80927738Y-108340181D01*
X81015421Y-108912859D01*
X81154408Y-109397394D01*
X81227334Y-109562001D01*
X81430872Y-109854059D01*
X81783414Y-110224774D01*
X82284339Y-110673522D01*
X82599183Y-110934205D01*
X82877883Y-111214462D01*
X83127753Y-111562060D01*
X83318512Y-111925177D01*
X83419879Y-112251994D01*
X83428667Y-112353784D01*
X83379270Y-112592661D01*
X83293031Y-112765969D01*
X83206102Y-112917575D01*
X83193655Y-112995877D01*
X83290472Y-113030528D01*
X83501020Y-113081127D01*
X83684165Y-113118284D01*
X83980717Y-113190943D01*
X84234940Y-113281057D01*
X84330896Y-113330548D01*
X84543446Y-113442492D01*
X84649735Y-113426053D01*
X84656164Y-113279264D01*
X84645943Y-113233744D01*
X84589993Y-113010822D01*
X85067663Y-113070503D01*
X85368046Y-113087650D01*
X85520884Y-113052084D01*
X85535563Y-112974708D01*
X85421466Y-112866425D01*
X85187979Y-112738139D01*
X84844487Y-112600754D01*
X84593604Y-112519718D01*
X84252843Y-112400689D01*
X84047214Y-112265493D01*
X83950692Y-112073393D01*
X83937254Y-111783652D01*
X83960228Y-111528255D01*
X84048844Y-111200297D01*
X84212849Y-110950581D01*
X84421861Y-110794577D01*
X84645497Y-110747755D01*
X84853373Y-110825583D01*
X84995028Y-111001386D01*
X85103180Y-111268089D01*
X85186364Y-111578171D01*
X85235413Y-111878730D01*
X85241160Y-112116861D01*
X85207546Y-112227940D01*
X85164125Y-112351425D01*
X85280280Y-112422495D01*
X85491914Y-112440666D01*
X85773677Y-112517195D01*
X86028136Y-112711275D01*
X86307333Y-112981884D01*
X86307333Y-112713371D01*
X86318172Y-112532534D01*
X86381627Y-112485007D01*
X86540012Y-112533321D01*
X86767995Y-112647156D01*
X86921012Y-112756015D01*
X87027641Y-112836742D01*
X87065159Y-112786862D01*
X87069333Y-112661607D01*
X86989665Y-112394035D01*
X86770608Y-112156988D01*
X86442086Y-111978261D01*
X86278878Y-111927328D01*
X86080612Y-111869576D01*
X85949628Y-111792992D01*
X85866154Y-111662427D01*
X85810418Y-111442732D01*
X85762649Y-111098757D01*
X85749220Y-110985696D01*
X85723880Y-110711293D01*
X85736040Y-110559734D01*
X85794388Y-110486997D01*
X85852242Y-110463752D01*
X85981485Y-110434590D01*
X86249485Y-110381049D01*
X86628292Y-110308469D01*
X87089958Y-110222191D01*
X87606535Y-110127557D01*
X87704333Y-110109841D01*
X88602119Y-109937520D01*
X89349385Y-109771210D01*
X89964570Y-109605698D01*
X90466117Y-109435775D01*
X90872466Y-109256229D01*
X91031070Y-109169804D01*
X91299724Y-108971977D01*
X91554649Y-108715182D01*
X91759796Y-108443734D01*
X91879118Y-108201950D01*
X91895333Y-108107306D01*
X91910666Y-108000697D01*
X91983958Y-107931439D01*
X92156149Y-107874246D01*
X92342460Y-107831132D01*
X92593937Y-107696614D01*
X92777384Y-107444986D01*
X92881809Y-107118575D01*
X92890266Y-106908031D01*
X92759768Y-106908031D01*
X92696484Y-107228995D01*
X92517927Y-107519541D01*
X92442437Y-107593500D01*
X92223879Y-107745863D01*
X92020377Y-107770845D01*
X91772317Y-107685743D01*
X91614573Y-107598501D01*
X91553974Y-107537576D01*
X91506298Y-107437723D01*
X91437385Y-107337555D01*
X91360019Y-107258272D01*
X91276633Y-107263468D01*
X91145155Y-107368270D01*
X91025211Y-107485722D01*
X90826626Y-107659735D01*
X90656647Y-107767214D01*
X90596979Y-107784000D01*
X90267795Y-107707651D01*
X90006161Y-107502836D01*
X89840756Y-107205900D01*
X89800264Y-106853190D01*
X89808696Y-106785087D01*
X89930769Y-106437560D01*
X90144757Y-106203685D01*
X90417270Y-106095133D01*
X90714920Y-106123576D01*
X91004318Y-106300689D01*
X91053552Y-106349896D01*
X91295709Y-106609125D01*
X91539938Y-106335785D01*
X91773828Y-106133294D01*
X92014470Y-106063349D01*
X92050325Y-106062444D01*
X92353058Y-106133855D01*
X92578548Y-106323338D01*
X92717287Y-106593771D01*
X92759768Y-106908031D01*
X92890266Y-106908031D01*
X92896224Y-106759709D01*
X92809638Y-106410713D01*
X92744310Y-106283438D01*
X92529181Y-106046627D01*
X92237468Y-105938087D01*
X91843660Y-105948727D01*
X91816555Y-105952904D01*
X91559855Y-105966711D01*
X91405841Y-105898136D01*
X91382219Y-105872837D01*
X91195872Y-105694757D01*
X90963431Y-105574511D01*
X90652546Y-105503811D01*
X90230865Y-105474371D01*
X89826406Y-105474312D01*
X88900478Y-105490660D01*
X88344739Y-105081668D01*
X87664255Y-104634710D01*
X87009436Y-104326224D01*
X86335158Y-104140855D01*
X85596295Y-104063249D01*
X85338292Y-104058666D01*
X84491936Y-104115814D01*
G04 #@! TD*
M02*
