G04 #@! TF.GenerationSoftware,KiCad,Pcbnew,(5.0.1-dev-70-gb7b125d83)*
G04 #@! TF.CreationDate,2018-10-10T22:00:42+02:00*
G04 #@! TF.ProjectId,relay-board,72656C61792D626F6172642E6B696361,rev?*
G04 #@! TF.SameCoordinates,Original*
G04 #@! TF.FileFunction,Copper,L1,Top,Signal*
G04 #@! TF.FilePolarity,Positive*
%FSLAX46Y46*%
G04 Gerber Fmt 4.6, Leading zero omitted, Abs format (unit mm)*
G04 Created by KiCad (PCBNEW (5.0.1-dev-70-gb7b125d83)) date 10/10/18 22:00:42*
%MOMM*%
%LPD*%
G01*
G04 APERTURE LIST*
G04 #@! TA.AperFunction,SMDPad,CuDef*
%ADD10C,1.676868*%
G04 #@! TD*
G04 #@! TA.AperFunction,Conductor*
%ADD11C,0.100000*%
G04 #@! TD*
G04 #@! TA.AperFunction,ComponentPad*
%ADD12R,3.600000X2.000000*%
G04 #@! TD*
G04 #@! TA.AperFunction,ComponentPad*
%ADD13O,3.600000X2.000000*%
G04 #@! TD*
G04 #@! TA.AperFunction,ComponentPad*
%ADD14R,1.700000X1.700000*%
G04 #@! TD*
G04 #@! TA.AperFunction,ComponentPad*
%ADD15O,1.700000X1.700000*%
G04 #@! TD*
G04 #@! TA.AperFunction,SMDPad,CuDef*
%ADD16R,1.900000X0.800000*%
G04 #@! TD*
G04 #@! TA.AperFunction,SMDPad,CuDef*
%ADD17C,1.150000*%
G04 #@! TD*
G04 #@! TA.AperFunction,ComponentPad*
%ADD18R,3.000000X2.000000*%
G04 #@! TD*
G04 #@! TA.AperFunction,ComponentPad*
%ADD19O,3.000000X2.000000*%
G04 #@! TD*
G04 #@! TA.AperFunction,ComponentPad*
%ADD20O,2.000000X3.000000*%
G04 #@! TD*
G04 #@! TA.AperFunction,Conductor*
%ADD21C,0.600000*%
G04 #@! TD*
G04 #@! TA.AperFunction,Conductor*
%ADD22C,2.500000*%
G04 #@! TD*
G04 #@! TA.AperFunction,Conductor*
%ADD23C,0.250000*%
G04 #@! TD*
G04 #@! TA.AperFunction,Conductor*
%ADD24C,0.254000*%
G04 #@! TD*
G04 APERTURE END LIST*
D10*
G04 #@! TO.P,D1,1*
G04 #@! TO.N,+5V*
X104400000Y-103000000D03*
D11*
G04 #@! TD*
G04 #@! TO.N,+5V*
G04 #@! TO.C,D1*
G36*
X106200000Y-101850000D02*
X106200000Y-104150000D01*
X102600000Y-103550000D01*
X102600000Y-102450000D01*
X106200000Y-101850000D01*
X106200000Y-101850000D01*
G37*
D10*
G04 #@! TO.P,D1,2*
G04 #@! TO.N,/~R*
X98600000Y-103000000D03*
D11*
G04 #@! TD*
G04 #@! TO.N,/~R*
G04 #@! TO.C,D1*
G36*
X96800000Y-104150000D02*
X96800000Y-101850000D01*
X100400000Y-102450000D01*
X100400000Y-103550000D01*
X96800000Y-104150000D01*
X96800000Y-104150000D01*
G37*
D12*
G04 #@! TO.P,J1,1*
G04 #@! TO.N,/N_in*
X78200000Y-77300000D03*
D13*
G04 #@! TO.P,J1,2*
G04 #@! TO.N,/L_in*
X78200000Y-82300000D03*
G04 #@! TD*
G04 #@! TO.P,J2,2*
G04 #@! TO.N,/N_out*
X78200000Y-110300000D03*
D12*
G04 #@! TO.P,J2,1*
G04 #@! TO.N,/L_out*
X78200000Y-105300000D03*
G04 #@! TD*
D14*
G04 #@! TO.P,J3,1*
G04 #@! TO.N,GND*
X97250000Y-78000000D03*
D15*
G04 #@! TO.P,J3,2*
G04 #@! TO.N,Net-(J3-Pad2)*
X99790000Y-78000000D03*
G04 #@! TO.P,J3,3*
G04 #@! TO.N,+5V*
X102330000Y-78000000D03*
G04 #@! TO.P,J3,4*
G04 #@! TO.N,/~R*
X104870000Y-78000000D03*
G04 #@! TD*
D16*
G04 #@! TO.P,Q1,1*
G04 #@! TO.N,Net-(Q1-Pad1)*
X101250000Y-85700000D03*
G04 #@! TO.P,Q1,2*
G04 #@! TO.N,GND*
X101250000Y-83800000D03*
G04 #@! TO.P,Q1,3*
G04 #@! TO.N,/~R*
X98250000Y-84750000D03*
G04 #@! TD*
D11*
G04 #@! TO.N,Net-(J3-Pad2)*
G04 #@! TO.C,R1*
G36*
X105974505Y-83151204D02*
X105998773Y-83154804D01*
X106022572Y-83160765D01*
X106045671Y-83169030D01*
X106067850Y-83179520D01*
X106088893Y-83192132D01*
X106108599Y-83206747D01*
X106126777Y-83223223D01*
X106143253Y-83241401D01*
X106157868Y-83261107D01*
X106170480Y-83282150D01*
X106180970Y-83304329D01*
X106189235Y-83327428D01*
X106195196Y-83351227D01*
X106198796Y-83375495D01*
X106200000Y-83399999D01*
X106200000Y-84050001D01*
X106198796Y-84074505D01*
X106195196Y-84098773D01*
X106189235Y-84122572D01*
X106180970Y-84145671D01*
X106170480Y-84167850D01*
X106157868Y-84188893D01*
X106143253Y-84208599D01*
X106126777Y-84226777D01*
X106108599Y-84243253D01*
X106088893Y-84257868D01*
X106067850Y-84270480D01*
X106045671Y-84280970D01*
X106022572Y-84289235D01*
X105998773Y-84295196D01*
X105974505Y-84298796D01*
X105950001Y-84300000D01*
X105049999Y-84300000D01*
X105025495Y-84298796D01*
X105001227Y-84295196D01*
X104977428Y-84289235D01*
X104954329Y-84280970D01*
X104932150Y-84270480D01*
X104911107Y-84257868D01*
X104891401Y-84243253D01*
X104873223Y-84226777D01*
X104856747Y-84208599D01*
X104842132Y-84188893D01*
X104829520Y-84167850D01*
X104819030Y-84145671D01*
X104810765Y-84122572D01*
X104804804Y-84098773D01*
X104801204Y-84074505D01*
X104800000Y-84050001D01*
X104800000Y-83399999D01*
X104801204Y-83375495D01*
X104804804Y-83351227D01*
X104810765Y-83327428D01*
X104819030Y-83304329D01*
X104829520Y-83282150D01*
X104842132Y-83261107D01*
X104856747Y-83241401D01*
X104873223Y-83223223D01*
X104891401Y-83206747D01*
X104911107Y-83192132D01*
X104932150Y-83179520D01*
X104954329Y-83169030D01*
X104977428Y-83160765D01*
X105001227Y-83154804D01*
X105025495Y-83151204D01*
X105049999Y-83150000D01*
X105950001Y-83150000D01*
X105974505Y-83151204D01*
X105974505Y-83151204D01*
G37*
D17*
G04 #@! TD*
G04 #@! TO.P,R1,2*
G04 #@! TO.N,Net-(J3-Pad2)*
X105500000Y-83725000D03*
D11*
G04 #@! TO.N,Net-(Q1-Pad1)*
G04 #@! TO.C,R1*
G36*
X105974505Y-85201204D02*
X105998773Y-85204804D01*
X106022572Y-85210765D01*
X106045671Y-85219030D01*
X106067850Y-85229520D01*
X106088893Y-85242132D01*
X106108599Y-85256747D01*
X106126777Y-85273223D01*
X106143253Y-85291401D01*
X106157868Y-85311107D01*
X106170480Y-85332150D01*
X106180970Y-85354329D01*
X106189235Y-85377428D01*
X106195196Y-85401227D01*
X106198796Y-85425495D01*
X106200000Y-85449999D01*
X106200000Y-86100001D01*
X106198796Y-86124505D01*
X106195196Y-86148773D01*
X106189235Y-86172572D01*
X106180970Y-86195671D01*
X106170480Y-86217850D01*
X106157868Y-86238893D01*
X106143253Y-86258599D01*
X106126777Y-86276777D01*
X106108599Y-86293253D01*
X106088893Y-86307868D01*
X106067850Y-86320480D01*
X106045671Y-86330970D01*
X106022572Y-86339235D01*
X105998773Y-86345196D01*
X105974505Y-86348796D01*
X105950001Y-86350000D01*
X105049999Y-86350000D01*
X105025495Y-86348796D01*
X105001227Y-86345196D01*
X104977428Y-86339235D01*
X104954329Y-86330970D01*
X104932150Y-86320480D01*
X104911107Y-86307868D01*
X104891401Y-86293253D01*
X104873223Y-86276777D01*
X104856747Y-86258599D01*
X104842132Y-86238893D01*
X104829520Y-86217850D01*
X104819030Y-86195671D01*
X104810765Y-86172572D01*
X104804804Y-86148773D01*
X104801204Y-86124505D01*
X104800000Y-86100001D01*
X104800000Y-85449999D01*
X104801204Y-85425495D01*
X104804804Y-85401227D01*
X104810765Y-85377428D01*
X104819030Y-85354329D01*
X104829520Y-85332150D01*
X104842132Y-85311107D01*
X104856747Y-85291401D01*
X104873223Y-85273223D01*
X104891401Y-85256747D01*
X104911107Y-85242132D01*
X104932150Y-85229520D01*
X104954329Y-85219030D01*
X104977428Y-85210765D01*
X105001227Y-85204804D01*
X105025495Y-85201204D01*
X105049999Y-85200000D01*
X105950001Y-85200000D01*
X105974505Y-85201204D01*
X105974505Y-85201204D01*
G37*
D17*
G04 #@! TD*
G04 #@! TO.P,R1,1*
G04 #@! TO.N,Net-(Q1-Pad1)*
X105500000Y-85775000D03*
D11*
G04 #@! TO.N,GND*
G04 #@! TO.C,R2*
G36*
X103974505Y-83151204D02*
X103998773Y-83154804D01*
X104022572Y-83160765D01*
X104045671Y-83169030D01*
X104067850Y-83179520D01*
X104088893Y-83192132D01*
X104108599Y-83206747D01*
X104126777Y-83223223D01*
X104143253Y-83241401D01*
X104157868Y-83261107D01*
X104170480Y-83282150D01*
X104180970Y-83304329D01*
X104189235Y-83327428D01*
X104195196Y-83351227D01*
X104198796Y-83375495D01*
X104200000Y-83399999D01*
X104200000Y-84050001D01*
X104198796Y-84074505D01*
X104195196Y-84098773D01*
X104189235Y-84122572D01*
X104180970Y-84145671D01*
X104170480Y-84167850D01*
X104157868Y-84188893D01*
X104143253Y-84208599D01*
X104126777Y-84226777D01*
X104108599Y-84243253D01*
X104088893Y-84257868D01*
X104067850Y-84270480D01*
X104045671Y-84280970D01*
X104022572Y-84289235D01*
X103998773Y-84295196D01*
X103974505Y-84298796D01*
X103950001Y-84300000D01*
X103049999Y-84300000D01*
X103025495Y-84298796D01*
X103001227Y-84295196D01*
X102977428Y-84289235D01*
X102954329Y-84280970D01*
X102932150Y-84270480D01*
X102911107Y-84257868D01*
X102891401Y-84243253D01*
X102873223Y-84226777D01*
X102856747Y-84208599D01*
X102842132Y-84188893D01*
X102829520Y-84167850D01*
X102819030Y-84145671D01*
X102810765Y-84122572D01*
X102804804Y-84098773D01*
X102801204Y-84074505D01*
X102800000Y-84050001D01*
X102800000Y-83399999D01*
X102801204Y-83375495D01*
X102804804Y-83351227D01*
X102810765Y-83327428D01*
X102819030Y-83304329D01*
X102829520Y-83282150D01*
X102842132Y-83261107D01*
X102856747Y-83241401D01*
X102873223Y-83223223D01*
X102891401Y-83206747D01*
X102911107Y-83192132D01*
X102932150Y-83179520D01*
X102954329Y-83169030D01*
X102977428Y-83160765D01*
X103001227Y-83154804D01*
X103025495Y-83151204D01*
X103049999Y-83150000D01*
X103950001Y-83150000D01*
X103974505Y-83151204D01*
X103974505Y-83151204D01*
G37*
D17*
G04 #@! TD*
G04 #@! TO.P,R2,1*
G04 #@! TO.N,GND*
X103500000Y-83725000D03*
D11*
G04 #@! TO.N,Net-(Q1-Pad1)*
G04 #@! TO.C,R2*
G36*
X103974505Y-85201204D02*
X103998773Y-85204804D01*
X104022572Y-85210765D01*
X104045671Y-85219030D01*
X104067850Y-85229520D01*
X104088893Y-85242132D01*
X104108599Y-85256747D01*
X104126777Y-85273223D01*
X104143253Y-85291401D01*
X104157868Y-85311107D01*
X104170480Y-85332150D01*
X104180970Y-85354329D01*
X104189235Y-85377428D01*
X104195196Y-85401227D01*
X104198796Y-85425495D01*
X104200000Y-85449999D01*
X104200000Y-86100001D01*
X104198796Y-86124505D01*
X104195196Y-86148773D01*
X104189235Y-86172572D01*
X104180970Y-86195671D01*
X104170480Y-86217850D01*
X104157868Y-86238893D01*
X104143253Y-86258599D01*
X104126777Y-86276777D01*
X104108599Y-86293253D01*
X104088893Y-86307868D01*
X104067850Y-86320480D01*
X104045671Y-86330970D01*
X104022572Y-86339235D01*
X103998773Y-86345196D01*
X103974505Y-86348796D01*
X103950001Y-86350000D01*
X103049999Y-86350000D01*
X103025495Y-86348796D01*
X103001227Y-86345196D01*
X102977428Y-86339235D01*
X102954329Y-86330970D01*
X102932150Y-86320480D01*
X102911107Y-86307868D01*
X102891401Y-86293253D01*
X102873223Y-86276777D01*
X102856747Y-86258599D01*
X102842132Y-86238893D01*
X102829520Y-86217850D01*
X102819030Y-86195671D01*
X102810765Y-86172572D01*
X102804804Y-86148773D01*
X102801204Y-86124505D01*
X102800000Y-86100001D01*
X102800000Y-85449999D01*
X102801204Y-85425495D01*
X102804804Y-85401227D01*
X102810765Y-85377428D01*
X102819030Y-85354329D01*
X102829520Y-85332150D01*
X102842132Y-85311107D01*
X102856747Y-85291401D01*
X102873223Y-85273223D01*
X102891401Y-85256747D01*
X102911107Y-85242132D01*
X102932150Y-85229520D01*
X102954329Y-85219030D01*
X102977428Y-85210765D01*
X103001227Y-85204804D01*
X103025495Y-85201204D01*
X103049999Y-85200000D01*
X103950001Y-85200000D01*
X103974505Y-85201204D01*
X103974505Y-85201204D01*
G37*
D17*
G04 #@! TD*
G04 #@! TO.P,R2,2*
G04 #@! TO.N,Net-(Q1-Pad1)*
X103500000Y-85775000D03*
D18*
G04 #@! TO.P,K1,A1*
G04 #@! TO.N,/~R*
X103800000Y-90000000D03*
D19*
G04 #@! TO.P,K1,A2*
G04 #@! TO.N,+5V*
X103800000Y-97500000D03*
D20*
G04 #@! TO.P,K1,11*
G04 #@! TO.N,/N_in*
X83500000Y-90000000D03*
G04 #@! TO.P,K1,24*
G04 #@! TO.N,/L_out*
X78460000Y-97500000D03*
G04 #@! TO.P,K1,21*
G04 #@! TO.N,/L_in*
X83500000Y-97500000D03*
G04 #@! TO.P,K1,14*
G04 #@! TO.N,/N_out*
X78460000Y-90000000D03*
G04 #@! TD*
D21*
G04 #@! TO.N,+5V*
X103800000Y-102400000D02*
X104400000Y-103000000D01*
X103800000Y-97500000D02*
X103800000Y-102400000D01*
G04 #@! TO.N,/~R*
X98250000Y-88000000D02*
X98250000Y-84750000D01*
X100250000Y-90000000D02*
X98250000Y-88000000D01*
X103800000Y-90000000D02*
X100250000Y-90000000D01*
X103300000Y-90000000D02*
X103800000Y-90000000D01*
X98600000Y-88350000D02*
X98250000Y-88000000D01*
X98600000Y-103000000D02*
X98600000Y-88350000D01*
D22*
G04 #@! TO.N,/N_in*
X83500000Y-90000000D02*
X83500000Y-78300000D01*
G04 #@! TO.N,/N_out*
X78460000Y-90000000D02*
X71257139Y-90000000D01*
D21*
G04 #@! TO.N,GND*
X103425000Y-83800000D02*
X103500000Y-83725000D01*
X101250000Y-83800000D02*
X103425000Y-83800000D01*
X101250000Y-82800000D02*
X100200000Y-81750000D01*
X101250000Y-83800000D02*
X101250000Y-82800000D01*
X100200000Y-81750000D02*
X98500000Y-81750000D01*
X97250000Y-80500000D02*
X97250000Y-78000000D01*
X98500000Y-81750000D02*
X97250000Y-80500000D01*
D23*
G04 #@! TO.N,Net-(J3-Pad2)*
X99790000Y-78000000D02*
X99790000Y-79790000D01*
X99790000Y-79790000D02*
X101250000Y-81250000D01*
X101250000Y-81250000D02*
X104250000Y-81250000D01*
X105500000Y-82500000D02*
X105500000Y-83725000D01*
X104250000Y-81250000D02*
X105500000Y-82500000D01*
D21*
G04 #@! TO.N,Net-(Q1-Pad1)*
X103425000Y-85700000D02*
X103500000Y-85775000D01*
X101250000Y-85700000D02*
X103425000Y-85700000D01*
X103500000Y-85775000D02*
X105500000Y-85775000D01*
G04 #@! TD*
D24*
G04 #@! TO.N,/N_out*
G36*
X79850080Y-91548000D02*
X76131616Y-91548000D01*
X76078833Y-91558499D01*
X75611895Y-91600172D01*
X75564019Y-91610130D01*
X75515187Y-91612775D01*
X75370325Y-91647019D01*
X74705332Y-91848426D01*
X74645610Y-91874394D01*
X74583129Y-91892783D01*
X74450030Y-91959434D01*
X73849206Y-92308420D01*
X73797055Y-92347434D01*
X73740483Y-92379702D01*
X73626287Y-92475185D01*
X73121864Y-92953030D01*
X73080092Y-93002988D01*
X73032457Y-93047409D01*
X72943290Y-93166602D01*
X72562321Y-93747674D01*
X72533158Y-93805912D01*
X72497024Y-93860092D01*
X72437668Y-93996600D01*
X72200594Y-94649728D01*
X72185610Y-94713113D01*
X72162910Y-94774153D01*
X72136550Y-94920655D01*
X72061677Y-95562859D01*
X72048000Y-95631617D01*
X72048001Y-106868384D01*
X72071096Y-106984491D01*
X72071096Y-106984497D01*
X72147216Y-107367180D01*
X72147216Y-107367181D01*
X72326693Y-107800478D01*
X72543466Y-108124902D01*
X72875098Y-108456534D01*
X73199522Y-108673307D01*
X73632818Y-108852783D01*
X73632820Y-108852784D01*
X74015502Y-108928904D01*
X74249298Y-108928904D01*
X74710197Y-109389803D01*
X74751399Y-109417333D01*
X74800000Y-109427000D01*
X80173000Y-109427000D01*
X80173000Y-112798000D01*
X72477606Y-112798000D01*
X69627000Y-109947394D01*
X69627000Y-88627000D01*
X79872042Y-88627000D01*
X79850080Y-91548000D01*
X79850080Y-91548000D01*
G37*
X79850080Y-91548000D02*
X76131616Y-91548000D01*
X76078833Y-91558499D01*
X75611895Y-91600172D01*
X75564019Y-91610130D01*
X75515187Y-91612775D01*
X75370325Y-91647019D01*
X74705332Y-91848426D01*
X74645610Y-91874394D01*
X74583129Y-91892783D01*
X74450030Y-91959434D01*
X73849206Y-92308420D01*
X73797055Y-92347434D01*
X73740483Y-92379702D01*
X73626287Y-92475185D01*
X73121864Y-92953030D01*
X73080092Y-93002988D01*
X73032457Y-93047409D01*
X72943290Y-93166602D01*
X72562321Y-93747674D01*
X72533158Y-93805912D01*
X72497024Y-93860092D01*
X72437668Y-93996600D01*
X72200594Y-94649728D01*
X72185610Y-94713113D01*
X72162910Y-94774153D01*
X72136550Y-94920655D01*
X72061677Y-95562859D01*
X72048000Y-95631617D01*
X72048001Y-106868384D01*
X72071096Y-106984491D01*
X72071096Y-106984497D01*
X72147216Y-107367180D01*
X72147216Y-107367181D01*
X72326693Y-107800478D01*
X72543466Y-108124902D01*
X72875098Y-108456534D01*
X73199522Y-108673307D01*
X73632818Y-108852783D01*
X73632820Y-108852784D01*
X74015502Y-108928904D01*
X74249298Y-108928904D01*
X74710197Y-109389803D01*
X74751399Y-109417333D01*
X74800000Y-109427000D01*
X80173000Y-109427000D01*
X80173000Y-112798000D01*
X72477606Y-112798000D01*
X69627000Y-109947394D01*
X69627000Y-88627000D01*
X79872042Y-88627000D01*
X79850080Y-91548000D01*
G04 #@! TO.N,/N_in*
G36*
X87123000Y-77302606D02*
X87123000Y-84947394D01*
X85774940Y-86295454D01*
X85699522Y-86326693D01*
X85375098Y-86543466D01*
X85043466Y-86875098D01*
X84826693Y-87199522D01*
X84647216Y-87632819D01*
X84647216Y-87632820D01*
X84571096Y-88015503D01*
X84548000Y-88131617D01*
X84548001Y-91548000D01*
X82364904Y-91548000D01*
X82327000Y-86999422D01*
X82327000Y-79100000D01*
X82317333Y-79051399D01*
X82289803Y-79010197D01*
X81489803Y-78210197D01*
X81448601Y-78182667D01*
X81400000Y-78173000D01*
X76327000Y-78173000D01*
X76327000Y-76127000D01*
X85947394Y-76127000D01*
X87123000Y-77302606D01*
X87123000Y-77302606D01*
G37*
X87123000Y-77302606D02*
X87123000Y-84947394D01*
X85774940Y-86295454D01*
X85699522Y-86326693D01*
X85375098Y-86543466D01*
X85043466Y-86875098D01*
X84826693Y-87199522D01*
X84647216Y-87632819D01*
X84647216Y-87632820D01*
X84571096Y-88015503D01*
X84548000Y-88131617D01*
X84548001Y-91548000D01*
X82364904Y-91548000D01*
X82327000Y-86999422D01*
X82327000Y-79100000D01*
X82317333Y-79051399D01*
X82289803Y-79010197D01*
X81489803Y-78210197D01*
X81448601Y-78182667D01*
X81400000Y-78173000D01*
X76327000Y-78173000D01*
X76327000Y-76127000D01*
X85947394Y-76127000D01*
X87123000Y-77302606D01*
G04 #@! TD*
M02*
