G04 #@! TF.GenerationSoftware,KiCad,Pcbnew,(5.0.1-dev-70-gb7b125d83)*
G04 #@! TF.CreationDate,2018-10-10T22:00:42+02:00*
G04 #@! TF.ProjectId,relay-board,72656C61792D626F6172642E6B696361,rev?*
G04 #@! TF.SameCoordinates,Original*
G04 #@! TF.FileFunction,Profile,NP*
%FSLAX46Y46*%
G04 Gerber Fmt 4.6, Leading zero omitted, Abs format (unit mm)*
G04 Created by KiCad (PCBNEW (5.0.1-dev-70-gb7b125d83)) date 10/10/18 22:00:42*
%MOMM*%
%LPD*%
G01*
G04 APERTURE LIST*
%ADD10C,0.150000*%
G04 APERTURE END LIST*
D10*
X68250000Y-114000000D02*
X68250000Y-73750000D01*
X73250000Y-95750000D02*
X73250000Y-106750000D01*
X73250000Y-95750000D02*
G75*
G02X76250000Y-92750000I3000000J0D01*
G01*
X75250000Y-95750000D02*
G75*
G02X76250000Y-94750000I1000000J0D01*
G01*
X75250000Y-106750000D02*
X75250000Y-95750000D01*
X68250000Y-114000000D02*
X107500000Y-114000000D01*
X107500000Y-73750000D02*
X107500000Y-114000000D01*
X68250000Y-73750000D02*
X107500000Y-73750000D01*
X92500000Y-77500000D02*
X92500000Y-105250000D01*
X94500000Y-105250000D02*
G75*
G02X92500000Y-105250000I-1000000J0D01*
G01*
X94500000Y-77500000D02*
X94500000Y-105250000D01*
X92500000Y-77500000D02*
G75*
G02X94500000Y-77500000I1000000J0D01*
G01*
X76250000Y-94750000D02*
X84750000Y-94750000D01*
X85750000Y-88250000D02*
X85750000Y-91750000D01*
X85750000Y-91750000D02*
G75*
G02X84750000Y-92750000I-1000000J0D01*
G01*
X87750000Y-91750000D02*
G75*
G02X84750000Y-94750000I-3000000J0D01*
G01*
X87750000Y-88250000D02*
X87750000Y-91750000D01*
X85750000Y-88250000D02*
G75*
G02X87750000Y-88250000I1000000J0D01*
G01*
X76250000Y-92750000D02*
X84750000Y-92750000D01*
X75250000Y-106750000D02*
G75*
G02X73250000Y-106750000I-1000000J0D01*
G01*
M02*
